<?xml version="1.0" standalone="no"?>
<!DOCTYPE svg PUBLIC "-//W3C//DTD SVG 20010904//EN"
 "http://www.w3.org/TR/2001/REC-SVG-20010904/DTD/svg10.dtd">
<svg version="1.0" xmlns="http://www.w3.org/2000/svg"
 width="700.000000pt" height="700.000000pt" viewBox="0 0 700.000000 700.000000"
 preserveAspectRatio="xMidYMid meet">
<metadata>
Created by potrace 1.11, written by Peter Selinger 2001-2013
</metadata>
<g transform="translate(0.000000,700.000000) scale(0.100000,-0.100000)"
fill="#000000" stroke="none">
<path d="M3814 6991 c-119 -29 -208 -116 -238 -233 -42 -164 64 -341 229 -383
39 -10 92 -12 440 -20 160 -3 355 -8 435 -10 80 -2 278 -7 440 -10 162 -4 354
-9 425 -10 72 -2 172 -4 223 -4 53 -1 92 -5 90 -10 -3 -10 -361 -372 -1937
-1959 -1531 -1543 -1468 -1479 -1500 -1547 -86 -183 17 -393 214 -438 94 -22
181 -4 254 51 25 19 165 155 311 303 146 147 679 684 1185 1194 506 510 1148
1157 1426 1438 l506 511 2 -84 c1 -47 4 -152 6 -235 6 -239 16 -697 20 -860
20 -916 17 -874 62 -958 113 -206 419 -213 542 -12 45 75 52 131 46 385 -3
124 -7 326 -10 450 -3 124 -7 308 -10 410 -2 102 -7 309 -11 460 -3 151 -7
327 -9 390 -1 63 -6 257 -9 430 -10 426 -11 447 -35 503 -26 61 -107 142 -168
168 -57 25 -34 24 -923 44 -216 5 -482 11 -855 20 -867 21 -1115 24 -1151 16z"/>
<path d="M270 6930 c-99 -14 -198 -89 -243 -188 l-22 -47 -2 -3210 -2 -3210
21 -63 c17 -49 34 -76 76 -118 30 -30 60 -54 66 -54 6 0 25 -8 41 -18 28 -16
206 -17 3260 -17 l3230 0 47 22 c67 31 131 94 164 161 l28 57 0 525 c1 596 2
584 -81 679 -161 184 -467 118 -536 -117 -13 -42 -16 -113 -17 -369 0 -174 -4
-320 -9 -323 -12 -7 -5634 -6 -5646 2 -7 4 -10 992 -10 2830 l1 2823 49 2 c28
2 181 4 340 5 289 3 290 3 346 29 200 94 248 366 90 512 -41 38 -101 73 -142
84 -32 8 -991 10 -1049 3z"/>
</g>
</svg>
